<svg width="83" height="15" viewBox="0 0 83 15" fill="none" xmlns="http://www.w3.org/2000/svg">
<path d="M81.9998 0.980396C81.989 0.428217 81.5326 -0.0106349 80.9804 0.000192165L71.9821 0.176629C71.4299 0.187456 70.9911 0.643862 71.0019 1.19604C71.0127 1.74822 71.4692 2.18707 72.0213 2.17624L80.0198 2.01941L80.1766 10.0179C80.1875 10.5701 80.6439 11.0089 81.196 10.9981C81.7482 10.9873 82.1871 10.5308 82.1762 9.97867L81.9998 0.980396ZM41 14V15V14ZM1 1C0.279167 1.69311 0.279433 1.69338 0.279719 1.69368C0.279842 1.69381 0.280149 1.69413 0.280395 1.69438C0.280887 1.69489 0.281463 1.69549 0.282121 1.69617C0.283439 1.69753 0.285089 1.69924 0.287072 1.70128C0.291038 1.70535 0.296337 1.71078 0.302971 1.71752C0.316238 1.73101 0.334847 1.74977 0.358819 1.77358C0.406762 1.8212 0.476163 1.88901 0.567198 1.97519C0.749262 2.14756 1.0179 2.39347 1.37451 2.69837C2.08772 3.30816 3.15308 4.15413 4.58189 5.11983C7.43981 7.05142 11.7515 9.46177 17.6058 11.4183L18.2398 9.52146C12.5753 7.62833 8.42562 5.30373 5.70183 3.4628C4.33979 2.54223 3.33422 1.74255 2.67421 1.17824C2.34422 0.896104 2.10067 0.672857 1.94221 0.522832C1.86298 0.447822 1.80503 0.391126 1.76819 0.354535C1.74976 0.33624 1.73662 0.322973 1.72874 0.314957C1.72479 0.310949 1.72217 0.308254 1.72085 0.306901C1.72019 0.306224 1.71986 0.305882 1.71986 0.30588C1.71986 0.305878 1.71994 0.305961 1.7201 0.30613C1.72018 0.306214 1.72036 0.306404 1.72041 0.306446C1.72061 0.306658 1.72083 0.306891 1 1ZM21.4033 12.5569C26.8328 14.005 33.3484 15 41 15V13C33.524 13 27.1817 12.0281 21.9187 10.6244L21.4033 12.5569ZM41 15C48.6516 15 55.1672 14.005 60.5967 12.5569L60.0813 10.6244C54.8184 12.0281 48.476 13 41 13V15ZM64.3942 11.4183C70.2485 9.46177 74.5602 7.05142 77.4181 5.11983C78.8469 4.15413 79.9123 3.30816 80.6255 2.69837C80.9821 2.39347 81.2507 2.14756 81.4328 1.97519C81.5238 1.88901 81.5932 1.8212 81.6412 1.77358C81.6652 1.74977 81.6838 1.73101 81.697 1.71752C81.7037 1.71078 81.709 1.70535 81.7129 1.70128C81.7149 1.69924 81.7166 1.69753 81.7179 1.69617C81.7185 1.69549 81.7191 1.69489 81.7196 1.69438C81.7198 1.69413 81.7202 1.69381 81.7203 1.69368C81.7206 1.69338 81.7208 1.69311 81 1C80.2792 0.306891 80.2794 0.306658 80.2796 0.306447C80.2796 0.306405 80.2798 0.306214 80.2799 0.30613C80.2801 0.305962 80.2801 0.305878 80.2801 0.30588C80.2801 0.305883 80.2798 0.306224 80.2792 0.306901C80.2778 0.308255 80.2752 0.310949 80.2713 0.314957C80.2634 0.322973 80.2502 0.33624 80.2318 0.354535C80.195 0.391126 80.137 0.447822 80.0578 0.522832C79.8993 0.672857 79.6558 0.896104 79.3258 1.17824C78.6658 1.74255 77.6602 2.54223 76.2982 3.4628C73.5744 5.30373 69.4247 7.62833 63.7603 9.52146L64.3942 11.4183Z" fill="#3F3F3F"/>
</svg>
