<svg xmlns="http://www.w3.org/2000/svg" width="64" height="64" viewBox="0 0 64 64"><title>geolocation</title><path d="M32 36a10 10 0 1 0-8.957-14.452 1 1 0 1 0 1.707 1.04l.01.004a8 8 0 1 1 0 6.816l-.007.003a1 1 0 1 0-1.722 1.016A10 10 0 0 0 32 36z"/><path d="M32 9a17 17 0 0 0-17 17c0 3.083 1.499 7.155 4.161 12.118a96.662 96.662 0 0 0 3.045 5.24 143.52 143.52 0 0 0 4.815 7.233c.574.81 1.108 1.547 1.587 2.196q.253.343.448.602l.157.207a3.386 3.386 0 0 0 5.588-.018l.143-.189q.194-.258.448-.602c.415-.562.87-1.189 1.358-1.873a.991.991 0 0 0 .193-.213l1.108-1.642q.535-.774 1.065-1.562l-.008-.005.082-.122a1 1 0 0 0-1.658-1.118l-1.12 1.661c-1.865 2.7-3.222 4.48-3.222 4.48a1.394 1.394 0 0 1-2.38 0S17 34.285 17 26a15 15 0 0 1 30 0c0 3.19-2.048 7.837-4.566 12.346a.989.989 0 0 0-.11.154l-2.01 3.48a1 1 0 0 0 1.733 1l.32-.555a92.977 92.977 0 0 0 2.472-4.307C47.5 33.155 49 29.083 49 26A17 17 0 0 0 32 9z"/><circle cx="23" cy="26" r="1"/></svg>