<svg xmlns="http://www.w3.org/2000/svg" width="64" height="64" viewBox="0 0 64 64"><title>user</title><path d="M47.005 41H40.01a1 1 0 1 0 0 2h6.995A4 4 0 0 1 51 46.996v4.008A3.991 3.991 0 0 1 47.005 55H44a1 1 0 0 0 0 2h3.006A5.991 5.991 0 0 0 53 51.004v-4.008A6 6 0 0 0 47.005 41zM36.001 55H16.995A4 4 0 0 1 13 51.004v-4.008A3.991 3.991 0 0 1 16.995 43h6.996a1 1 0 1 0 0-2H16.995A5.991 5.991 0 0 0 11 46.996v4.008A6 6 0 0 0 16.995 57H36a1 1 0 0 0 0-2z"/><circle cx="40" cy="56" r="1"/><path d="M32 9a13.412 13.412 0 0 0-13.378 13.444C18.622 29.87 24.612 42 32 42s13.378-12.13 13.378-19.556A13.412 13.412 0 0 0 32 9zm0 31c-5.31 0-11.378-9.927-11.378-17.556a11.379 11.379 0 1 1 22.756 0C43.378 30.073 37.31 40 32 40z"/></svg>