<svg xmlns="http://www.w3.org/2000/svg" width="64" height="64" viewBox="0 0 64 64"><title>reload</title><circle cx="54.03" cy="31.129" r="1"/><path d="M53.799 34.383a1 1 0 0 0-.99.855l-.006-.001a21.001 21.001 0 0 1-38.308 8.318l3.42.917a1 1 0 0 0 .517-1.932l-5.8-1.554a.994.994 0 0 0-.754.1.981.981 0 0 0-.468.605l-1.554 5.8a1 1 0 0 0 1.931.518l.94-3.504a23.001 23.001 0 0 0 42.036-8.857 1 1 0 0 0-.964-1.265zM10.501 33.785a1 1 0 0 0 .496-.96h.007a21.003 21.003 0 0 1 38.543-12.339l-3.42-.916a1 1 0 0 0-.518 1.932l5.801 1.554a.994.994 0 0 0 .754-.1.981.981 0 0 0 .467-.605l1.555-5.801a1 1 0 0 0-1.932-.518l-.94 3.505a23.004 23.004 0 0 0-42.31 13.318 1 1 0 0 0 1.497.93z"/></svg>