<svg width="22" height="14" viewBox="0 0 22 14" fill="none" xmlns="http://www.w3.org/2000/svg">
<path fill-rule="evenodd" clip-rule="evenodd" d="M11 0C8.69473 0.0186944 6.44109 0.684874 4.49615 1.92256C2.55122 3.16024 0.993286 4.91961 0 7C0.978131 9.09198 2.53251 10.8617 4.48083 12.1015C6.42916 13.3413 8.69065 13.9998 11 13.9998C13.3094 13.9998 15.5708 13.3413 17.5192 12.1015C19.4675 10.8617 21.0219 9.09198 22 7C21.0067 4.91961 19.4488 3.16024 17.5038 1.92256C15.5589 0.684874 13.3053 0.0186944 11 0ZM16.424 3.712C17.7222 4.55932 18.8181 5.68185 19.634 7C18.8184 8.31842 17.7225 9.44101 16.424 10.288C14.8106 11.3401 12.9261 11.9002 11 11.9002C9.0739 11.9002 7.18936 11.3401 5.57599 10.288C4.27753 9.44101 3.1816 8.31842 2.36603 7C3.18163 5.6816 4.27755 4.55901 5.57599 3.712C5.65999 3.65733 5.74499 3.604 5.83099 3.552C5.61126 4.16687 5.49929 4.81505 5.5 5.468C5.5 6.92669 6.07945 8.32564 7.1109 9.35709C8.14235 10.3885 9.54131 10.968 11 10.968C12.4587 10.968 13.8576 10.3885 14.8891 9.35709C15.9205 8.32564 16.5 6.92669 16.5 5.468C16.5007 4.81505 16.3887 4.16687 16.169 3.552C16.2563 3.60467 16.3413 3.658 16.424 3.712ZM11 4.769C10.9927 5.17537 10.8655 5.57053 10.6345 5.90488C10.4034 6.23924 10.0787 6.49789 9.70117 6.64838C9.32362 6.79887 8.91004 6.83448 8.51233 6.75075C8.11461 6.66702 7.75046 6.46767 7.46564 6.17774C7.18081 5.8878 6.98803 5.5202 6.91138 5.12106C6.83473 4.72192 6.87768 4.30903 7.03485 3.93422C7.19202 3.5594 7.45639 3.23936 7.7948 3.01427C8.13321 2.78918 8.53058 2.66907 8.93701 2.669C9.21038 2.67135 9.48059 2.72755 9.73224 2.83437C9.98388 2.94119 10.212 3.09655 10.4036 3.29157C10.5952 3.48659 10.7465 3.71744 10.8488 3.97095C10.9511 4.22445 11.0025 4.49563 11 4.769Z" fill="#242424"/>
</svg>
