<svg xmlns="http://www.w3.org/2000/svg" width="64" height="64" viewBox="0 0 64 64"><title>shop-3</title><path d="M25 45a4 4 0 1 0 4 4 4 4 0 0 0-4-4zm0 6a2 2 0 1 1 2-2 2 2 0 0 1-2 2z"/><circle cx="23.763" cy="36.006" r="1"/><path d="M47 45a4 4 0 1 0 4 4 4 4 0 0 0-4-4zm0 6a2 2 0 1 1 2-2 2 2 0 0 1-2 2zM48.996 18h-27.94l-1.21-5.844-10.14-2.135a1 1 0 0 0-.412 1.958l8.86 1.865L21.91 32h.004l.097.457a1 1 0 0 0 1.956-.415l-.208-.98-.007-.032L21.469 20h27.527a1.462 1.462 0 0 1 1.49 1.93l-2.971 11.14A2.74 2.74 0 0 1 44.992 35H29.01a1 1 0 1 0 0 2h15.983a4.737 4.737 0 0 0 4.455-3.415l2.97-11.14A3.457 3.457 0 0 0 48.997 18zM23.546 39.927l.166.782.474 2.291H47a1 1 0 0 0 0-2H25.814l-.094-.456a.985.985 0 0 0-.01-.052l-.04-.194-.063-.298h-.001l-.104-.488a1 1 0 0 0-1.956.415z"/></svg>