<svg xmlns="http://www.w3.org/2000/svg" width="64" height="64" viewBox="0 0 64 64"><path fill-rule="evenodd" d="M47 40h7c1.65 0 3-1.345 3-3.002V17.002A2.995 2.995 0 0 0 54 14H20c-1.65 0-3 1.345-3 3.002V25h2v-7.998c0-.553.455-1.002 1-1.002h34c.552 0 1 .44 1 1.002v19.996C55 37.55 54.545 38 54 38h-7v2zm-3.5-20H19v2h25.001A.997.997 0 0 0 45 21c0-.556-.447-1-.999-1h-.502zm9 0H55v2h-3.001A.997.997 0 0 1 51 21c0-.552.443-1 .999-1h.502zM48 22a1 1 0 1 0 0-2 1 1 0 0 0 0 2zM7 44v2.998A2.995 2.995 0 0 0 10 50h34c1.65 0 3-1.345 3-3.002V27.002A2.995 2.995 0 0 0 44 24H10c-1.65 0-3 1.345-3 3.002V39a1 1 0 1 0 2 0V27.002C9 26.45 9.455 26 10 26h34c.552 0 1 .44 1 1.002v19.996C45 47.55 44.545 48 44 48H10c-.552 0-1-.44-1-1.002V44a1 1 0 1 0-2 0zm16-3a4 4 0 1 0 0-8 4 4 0 0 0 0 8zm0 2a6 6 0 1 1 0-12 6 6 0 0 1 0 12zm4.5-2.031a6 6 0 1 0 0-7.937 5.997 5.997 0 0 1 1.112 1.84 4 4 0 1 1 0 4.255A5.998 5.998 0 0 1 27.5 40.97z"/></svg>