<svg width="18" height="18" viewBox="0 0 18 18" fill="none" xmlns="http://www.w3.org/2000/svg">
<path fill-rule="evenodd" clip-rule="evenodd" d="M3.75 15.75C3.75 14.5074 4.75736 13.5 6 13.5C7.24264 13.5 8.25 14.5074 8.25 15.75C8.25 16.9926 7.24264 18 6 18C4.75736 18 3.75 16.9926 3.75 15.75ZM6 15C5.58579 15 5.25 15.3358 5.25 15.75C5.25 16.1642 5.58579 16.5 6 16.5C6.41421 16.5 6.75 16.1642 6.75 15.75C6.75 15.3358 6.41421 15 6 15Z" fill="#3F3F3F"/>
<path fill-rule="evenodd" clip-rule="evenodd" d="M12.75 15.75C12.75 14.5074 13.7574 13.5 15 13.5C16.2426 13.5 17.25 14.5074 17.25 15.75C17.25 16.9926 16.2426 18 15 18C13.7574 18 12.75 16.9926 12.75 15.75ZM15 15C14.5858 15 14.25 15.3358 14.25 15.75C14.25 16.1642 14.5858 16.5 15 16.5C15.4142 16.5 15.75 16.1642 15.75 15.75C15.75 15.3358 15.4142 15 15 15Z" fill="#3F3F3F"/>
<path fill-rule="evenodd" clip-rule="evenodd" d="M0 0.75C0 0.335786 0.335786 0 0.75 0H2.43864C3.56681 0.00170906 4.51928 0.83864 4.66609 1.95719C4.66608 1.95708 4.66611 1.95729 4.66609 1.95719L4.90265 3.75H17.25C17.4747 3.75 17.6876 3.85077 17.8301 4.02457C17.9725 4.19838 18.0295 4.4269 17.9854 4.64726L16.7256 10.9386C16.7256 10.939 16.7255 10.9393 16.7254 10.9396C16.7254 10.9397 16.7254 10.9396 16.7254 10.9396C16.5132 12.0055 15.5695 12.7671 14.4835 12.75H6.56534C5.43025 12.7579 4.46682 11.9189 4.31894 10.7931M4.31894 10.7931L3.17894 2.15311C3.13007 1.78036 2.81272 1.5008 2.43683 1.5H0.75C0.335786 1.5 0 1.16421 0 0.75M5.10056 5.25L5.80606 10.5969C5.85531 10.9726 6.17719 11.2532 6.55614 11.25L6.5625 11.25L14.49 11.25L14.5044 11.2501C14.8676 11.2571 15.1836 11.0027 15.2544 10.6464L15.2546 10.6452L16.3349 5.25H5.10056Z" fill="#3F3F3F"/>
</svg>
