<svg xmlns="http://www.w3.org/2000/svg" width="64" height="64" viewBox="0 0 64 64"><path d="M42 17a1 1 0 1 0 2 0 1 1 0 1 0-2 0zm12.288.076l.075-.076h-.138a2.978 2.978 0 0 0-2.222-1H47a1 1 0 1 0 0 2h3.535l-17.78 17.78a1.005 1.005 0 0 1-1.43 0L13.545 18H38.99a1 1 0 1 0 0-2H11.997a2.977 2.977 0 0 0-2.221 1h-.06l.033.033A2.973 2.973 0 0 0 9 18.997v26.007A2.993 2.993 0 0 0 11.997 48h40.006A2.995 2.995 0 0 0 55 45.003V18.996a2.97 2.97 0 0 0-.712-1.92zM29.91 37.195a3.005 3.005 0 0 0 4.258 0l18.687-18.687a.972.972 0 0 1 .145.489v26.007a.966.966 0 0 1-.05.248l-8.726-8.727-1.633-1.63a1 1 0 0 0-1.414 1.414l2.295 2.296L50.87 46H13.13l9.604-9.604a1 1 0 0 0-1.415-1.414l-10.27 10.27a.967.967 0 0 1-.049-.249V18.996a.971.971 0 0 1 .177-.535z"/></svg>