<svg width="40" height="40" viewBox="0 0 40 40" fill="none" xmlns="http://www.w3.org/2000/svg">
<g clip-path="url(#clip0_50_1728)">
<path d="M20 40C31.0457 40 40 31.0457 40 20C40 8.95431 31.0457 0 20 0C8.95431 0 0 8.95431 0 20C0 31.0457 8.95431 40 20 40Z" fill="#333333"/>
<path fill-rule="evenodd" clip-rule="evenodd" d="M16.6735 24.0686L25.9476 15.6994C26.3546 15.3382 25.8587 15.162 25.3184 15.4897L13.8729 22.7105L8.92909 21.1674C7.86144 20.8405 7.85378 20.1069 9.16879 19.5794L28.4338 12.1509C29.3137 11.7515 30.1629 12.3623 29.827 13.709L26.5462 29.1695C26.3171 30.2681 25.6533 30.5309 24.7335 30.0234L19.7358 26.331L17.3335 28.6669C17.0544 28.9382 16.8335 29.1669 16.3335 29.1669L16.6735 24.0686Z" fill="white"/>
</g>
<defs>
<clipPath id="clip0_50_1728">
<rect width="40" height="40" fill="white"/>
</clipPath>
</defs>
</svg>
