<svg width="40" height="40" viewBox="0 0 40 40" fill="none" xmlns="http://www.w3.org/2000/svg">
<g clip-path="url(#clip0_50_1737)">
<path fill-rule="evenodd" clip-rule="evenodd" d="M0 20C0 8.95431 8.95431 0 20 0C31.0457 0 40 8.95431 40 20C40 31.0457 31.0457 40 20 40C8.95431 40 0 31.0457 0 20Z" fill="#333333"/>
<path fill-rule="evenodd" clip-rule="evenodd" d="M21.0464 25.8967C21.0464 25.8967 21.4314 25.8547 21.6286 25.6468C21.8091 25.4563 21.8029 25.0968 21.8029 25.0968C21.8029 25.0968 21.7789 23.4181 22.5729 23.1703C23.3555 22.9265 24.3603 24.7937 25.4266 25.5116C26.2321 26.0545 26.8436 25.9357 26.8436 25.9357L29.6932 25.8967C29.6932 25.8967 31.1831 25.8066 30.4768 24.6564C30.4183 24.5622 30.0646 23.8053 28.3586 22.2505C26.5713 20.6231 26.8112 20.8863 28.9628 18.0707C30.2733 16.3562 30.7971 15.3095 30.6333 14.8619C30.4778 14.4338 29.5137 14.5474 29.5137 14.5474L26.3062 14.5669C26.3062 14.5669 26.0683 14.5352 25.892 14.6386C25.7198 14.74 25.6082 14.9766 25.6082 14.9766C25.6082 14.9766 25.1011 16.3029 24.4239 17.4316C22.9955 19.8119 22.4247 19.9379 22.191 19.7904C21.6474 19.4452 21.783 18.4056 21.783 17.6672C21.783 15.3596 22.1399 14.3979 21.0892 14.149C20.7407 14.0661 20.484 14.0118 19.5919 14.0026C18.4472 13.9913 17.4789 14.0067 16.9301 14.2699C16.5649 14.445 16.2832 14.8363 16.4554 14.8588C16.6672 14.8865 17.1471 14.9858 17.4017 15.3258C17.7304 15.7652 17.7189 16.7505 17.7189 16.7505C17.7189 16.7505 17.9078 19.4667 17.2776 19.8037C16.8456 20.0352 16.2529 19.563 14.9789 17.4029C14.3268 16.2968 13.8343 15.0739 13.8343 15.0739C13.8343 15.0739 13.7394 14.8455 13.5693 14.7226C13.3637 14.5741 13.0768 14.528 13.0768 14.528L10.029 14.5474C10.029 14.5474 9.57091 14.5597 9.40292 14.7554C9.25371 14.9285 9.39145 15.2879 9.39145 15.2879C9.39145 15.2879 11.7777 20.7685 14.4802 23.5308C16.9583 26.0627 19.7713 25.8967 19.7713 25.8967H21.0464Z" fill="white"/>
</g>
<defs>
<clipPath id="clip0_50_1737">
<rect width="40" height="40" fill="white"/>
</clipPath>
</defs>
</svg>
